<?xml version="1.0" encoding="UTF-8"?>
<!DOCTYPE svg PUBLIC "-//W3C//DTD SVG 1.1//EN" "http://www.w3.org/Graphics/SVG/1.1/DTD/svg11.dtd">
<svg version="1.1" id="Layer_1" xmlns="http://www.w3.org/2000/svg" xmlns:xlink="http://www.w3.org/1999/xlink" x="0px" y="0px" width="16px" height="16px" viewBox="0 0 16 16" enable-background="new 0 0 16 16" xml:space="preserve">
  <g id="icon">
    <path d="M15.393,0.764c-0.047,-0.076,-0.143,-0.166,-0.333,-0.168c-0.166,-0.001,-0.378,0.064,-0.648,0.199c-0.867,0.435,-3.171,2.625,-3.517,2.957l-8.694,-0.345c-0.061,-0.002,-0.12,0.017,-0.169,0.054L0.736,4.449c-0.173,0.132,-0.126,0.409,0.081,0.473L7.88,7.117l-3.189,3.179l-2.953,-0.189c-0.081,-0.005,-0.16,0.028,-0.214,0.089l-0.943,1.071c-0.132,0.15,-0.062,0.39,0.13,0.441l2.585,0.686c-0.091,0.092,-0.212,0.218,-0.363,0.377c-0.275,0.289,-0.379,0.523,-0.308,0.695c0.044,0.106,0.147,0.168,0.283,0.169c0.182,0.002,0.409,-0.099,0.622,-0.275c0.208,-0.172,0.342,-0.296,0.428,-0.387l1.094,2.37c0.087,0.189,0.343,0.209,0.459,0.037l0.907,-1.362c0.045,-0.068,0.058,-0.153,0.034,-0.231l-0.633,-2.076l3.393,-3.382l3.056,6.661c0.073,0.158,0.272,0.205,0.406,0.096l0.823,-0.674c0.072,-0.059,0.108,-0.151,0.097,-0.244l-1.15,-9.153c0.35,-0.376,2.563,-2.76,2.847,-3.389C15.469,1.232,15.504,0.942,15.393,0.764z" fill="#C8C6C4" stroke="#383838" stroke-width="1" stroke-miterlimit="10"/>
  </g>
</svg>
